<mxfile host="Electron" modified="2023-07-27T00:22:39.084Z" agent="Mozilla/5.0 (Macintosh; Intel Mac OS X 10_15_7) AppleWebKit/537.36 (KHTML, like Gecko) draw.io/21.6.5 Chrome/114.0.5735.243 Electron/25.3.1 Safari/537.36" etag="St6KH51wNAweu-hCpeo0" version="21.6.5" type="device">
  <diagram name="第 1 页" id="tvq-equsZKoAQ0fA3_7Q">
    <mxGraphModel dx="1660" dy="840" grid="1" gridSize="10" guides="1" tooltips="1" connect="1" arrows="1" fold="1" page="1" pageScale="1" pageWidth="827" pageHeight="1169" math="0" shadow="0">
      <root>
        <mxCell id="0" />
        <mxCell id="1" parent="0" />
        <mxCell id="i8ljEDd3MbkQTJ8pFnPM-1" value="-Xms20M、-Xmx20M、-Xmn10M&lt;br&gt;XX:SurvivorRatio=8" style="text;html=1;strokeColor=none;fillColor=none;align=center;verticalAlign=middle;whiteSpace=wrap;rounded=0;" vertex="1" parent="1">
          <mxGeometry x="249" y="30" width="330" height="30" as="geometry" />
        </mxCell>
        <mxCell id="i8ljEDd3MbkQTJ8pFnPM-2" value="" style="rounded=1;whiteSpace=wrap;html=1;" vertex="1" parent="1">
          <mxGeometry x="140" y="130" width="580" height="360" as="geometry" />
        </mxCell>
        <mxCell id="i8ljEDd3MbkQTJ8pFnPM-3" value="20M" style="text;html=1;strokeColor=none;fillColor=none;align=center;verticalAlign=middle;whiteSpace=wrap;rounded=0;" vertex="1" parent="1">
          <mxGeometry x="265" y="140" width="330" height="30" as="geometry" />
        </mxCell>
        <mxCell id="i8ljEDd3MbkQTJ8pFnPM-5" value="" style="rounded=0;whiteSpace=wrap;html=1;" vertex="1" parent="1">
          <mxGeometry x="180" y="180" width="240" height="270" as="geometry" />
        </mxCell>
        <mxCell id="i8ljEDd3MbkQTJ8pFnPM-6" value="" style="rounded=0;whiteSpace=wrap;html=1;" vertex="1" parent="1">
          <mxGeometry x="450" y="180" width="240" height="270" as="geometry" />
        </mxCell>
        <mxCell id="i8ljEDd3MbkQTJ8pFnPM-7" value="新生代 10M" style="text;html=1;strokeColor=none;fillColor=none;align=center;verticalAlign=middle;whiteSpace=wrap;rounded=0;" vertex="1" parent="1">
          <mxGeometry x="135" y="190" width="330" height="30" as="geometry" />
        </mxCell>
        <mxCell id="i8ljEDd3MbkQTJ8pFnPM-8" value="老年代 10M" style="text;html=1;strokeColor=none;fillColor=none;align=center;verticalAlign=middle;whiteSpace=wrap;rounded=0;" vertex="1" parent="1">
          <mxGeometry x="405" y="190" width="330" height="30" as="geometry" />
        </mxCell>
        <mxCell id="i8ljEDd3MbkQTJ8pFnPM-9" value="Survivor 1M" style="rounded=0;whiteSpace=wrap;html=1;" vertex="1" parent="1">
          <mxGeometry x="200" y="230" width="90" height="40" as="geometry" />
        </mxCell>
        <mxCell id="i8ljEDd3MbkQTJ8pFnPM-10" value="Survivor 1M" style="rounded=0;whiteSpace=wrap;html=1;" vertex="1" parent="1">
          <mxGeometry x="310" y="230" width="90" height="40" as="geometry" />
        </mxCell>
        <mxCell id="i8ljEDd3MbkQTJ8pFnPM-11" value="Eden 8M" style="rounded=0;whiteSpace=wrap;html=1;" vertex="1" parent="1">
          <mxGeometry x="200" y="280" width="200" height="150" as="geometry" />
        </mxCell>
      </root>
    </mxGraphModel>
  </diagram>
</mxfile>
